<?xml version="1.0" encoding="utf-8"?>
<!-- Generator: Adobe Illustrator 16.0.0, SVG Export Plug-In . SVG Version: 6.00 Build 0)  -->
<!DOCTYPE svg PUBLIC "-//W3C//DTD SVG 1.1//EN" "http://www.w3.org/Graphics/SVG/1.1/DTD/svg11.dtd">
<svg version="1.1" id="logo" xmlns="http://www.w3.org/2000/svg" xmlns:xlink="http://www.w3.org/1999/xlink" x="0px" y="0px"
	 width="741px" height="226px" viewBox="0 0 741 226" enable-background="new 0 0 741 226" xml:space="preserve">
<g>
	<path fill="#006838" d="M6.277,152.124h19.805c0.184,3.88,1.643,6.797,4.367,8.741c2.91,1.935,6.792,2.897,11.641,2.897
		c3.495,0,6.5-0.661,9.025-2.035c2.334-1.347,3.495-3.204,3.495-5.53c0-3.498-4.073-6.106-12.224-7.857
		c-3.495-0.575-6.118-1.171-7.864-1.746c-10.292-2.521-17.179-5.53-20.667-9.028c-3.89-3.492-5.829-8.141-5.829-13.979
		c0-7.367,2.819-13.475,8.442-18.341c5.829-4.45,13.395-6.686,22.711-6.686c10.096,0,18.151,2.236,24.172,6.686
		c5.615,4.866,8.625,11.175,9.018,18.936H59.853c-3.693,0-6.507-1.655-8.45-4.954c-0.776-0.774-1.553-1.551-2.324-2.327
		c-2.324-1.746-5.533-2.631-9.603-2.631c-3.895,0-6.802,0.599-8.739,1.749c-1.746,1.174-2.621,2.92-2.621,5.246
		c0,3.111,5.043,5.729,15.144,7.853c1.161,0.399,2.179,0.686,3.053,0.884c0.875,0.199,1.701,0.289,2.478,0.289
		c9.892,2.522,16.779,5.442,20.667,8.736c3.691,3.495,5.53,8.144,5.53,13.963c0,8.543-3.098,15.156-9.314,19.802
		c-5.819,4.274-14.558,6.415-26.196,6.415c-11.061,0-19.32-2.231-24.757-6.701c-5.623-4.468-8.442-10.973-8.442-19.516V152.124z"/>
	<path fill="#006838" d="M89.291,170.758c-4.073-3.498-6.99-8.196-8.739-14.121c-1.741-5.925-2.613-12.078-2.613-18.493
		c0-5.231,0.729-10.468,2.179-15.711c1.462-5.241,3.739-9.604,6.849-13.098c5.043-5.823,11.546-9.27,19.503-10.335
		c7.952-1.077,15.133-0.44,21.541,1.887c7.375,2.917,12.81,7.963,16.304,15.132c3.294,6.415,4.955,13.893,4.955,22.428
		c0,6.203-0.688,11.538-2.045,16.005c-1.362,4.471-3.11,8.255-5.231,11.35c-4.668,6.415-10.591,10.397-17.767,11.948
		c-6.405,1.746-12.859,1.882-19.36,0.439C98.36,176.728,93.171,174.25,89.291,170.758z M103.261,119.513
		c-4.07,4.473-5.919,11.11-5.53,19.955c0.387,8.832,2.045,14.982,4.955,18.476c1.161,1.553,3.199,2.879,6.108,3.938
		c2.91,1.065,5.87,1.153,8.882,0.289c3.008-0.865,5.673-3.056,8.01-6.551c2.324-3.495,3.583-9.116,3.782-16.883
		c0-6.989-1.121-12.233-3.352-15.729c-2.224-3.495-4.802-5.727-7.711-6.704c-2.91-0.949-5.819-1.015-8.736-0.13
		C106.757,117.035,104.621,118.166,103.261,119.513z"/>
	<path fill="#006838" d="M173.753,87.209v23.275c2.131-3.668,5.242-6.681,9.314-9.023c3.495-1.927,7.761-2.902,12.809-2.902
		c9.124,0,16.599,3.782,22.423,11.351c5.822,7.569,8.729,17.369,8.729,29.402c0,12.04-2.907,21.842-8.729,29.407
		c-2.91,3.696-6.847,6.353-11.792,8.008c-4.948,1.639-9.85,2.478-14.704,2.478c-9.314,0-17.955-2.43-25.908-7.281
		c-7.967-4.862-11.938-14.174-11.938-27.943V77.297h9.902c2.711,0,5.043,0.978,6.982,2.922
		C172.781,82.157,173.753,84.488,173.753,87.209z M206.94,138.445c0-6.985-1.45-12.423-4.362-16.302
		c-2.907-4.088-6.892-6.126-11.935-6.126c-5.435,0-9.611,1.947-12.523,5.821c-2.91,4.089-4.367,9.621-4.367,16.606
		c0,8.148,1.357,14.078,4.081,17.752c2.91,4.072,6.982,6.123,12.222,6.123c5.442,0,9.616-2.051,12.522-6.123
		C205.49,152.124,206.94,146.199,206.94,138.445z"/>
	<path fill="#006838" d="M232.016,177.748v-37.552c0-7.585,1.116-13.933,3.35-19.07c2.224-5.151,5.287-9.269,9.173-12.388
		c3.681-2.899,8.01-5.043,12.953-6.397c4.947-1.362,10.045-2.035,15.282-2.035c0.392,0,0.882,0,1.458,0c0.588,0,1.068,0,1.46,0
		v20.667h-6.701c-5.626,0-9.804,1.352-12.513,4.073c-2.726,2.724-4.083,6.989-4.083,12.812v39.891H232.016z"/>
	<path fill="#006838" d="M333.074,153.873h14.558c-2.128,8.144-6.211,14.364-12.227,18.631c-6.02,4.47-13.586,6.701-22.709,6.701
		c-11.063,0-19.697-3.604-25.913-10.774c-6.209-6.99-9.314-16.987-9.314-29.985c0-12.423,3.01-22.142,9.028-29.111
		c6.204-7.187,14.847-10.775,25.908-10.775c11.651,0,20.669,3.494,27.081,10.484c6.206,7.176,9.317,17.174,9.317,29.982
		c0,0.779,0,1.463,0,2.038s0,0.978,0,1.171c0,0.967-0.103,1.638-0.294,2.035h-50.371c0.193,6.018,1.653,10.468,4.367,13.388
		c2.52,3.101,6.314,4.663,11.362,4.663c3.294,0,6.108-0.681,8.44-2.051c0.585-0.178,1.115-0.529,1.603-1.02
		c0.485-0.48,1.018-1.016,1.593-1.593c0.196-0.576,0.927-1.35,2.191-2.327C328.956,154.36,330.747,153.873,333.074,153.873z
		 M298.138,131.171h29.699c-0.39-5.243-1.747-9.136-4.081-11.658c-2.525-2.716-6.108-4.07-10.767-4.07
		c-4.269,0-7.767,1.354-10.485,4.07C299.792,122.236,298.332,126.126,298.138,131.171z"/>
	<path fill="#8BC53F" d="M355.238,77.586h10.478c2.721,0,5.045,0.978,6.992,2.921c1.933,1.947,2.91,4.27,2.91,6.99v6.107h-20.38
		V77.586z"/>
	<path fill="#006838" d="M355.238,100.306h10.478c2.721,0,5.045,0.977,6.992,2.902c1.933,1.947,2.91,4.273,2.91,6.99v67.55h-20.38
		V100.306z"/>
	<path fill="#006838" d="M381.714,177.748v-37.552c0-7.585,1.107-13.933,3.339-19.07c2.233-5.151,5.289-9.269,9.171-12.388
		c3.691-2.899,8.011-5.043,12.958-6.397c4.952-1.362,10.043-2.035,15.286-2.035c0.385,0,0.875,0,1.46,0c0.576,0,1.059,0,1.45,0
		v20.667h-6.693c-5.636,0-9.805,1.352-12.521,4.073c-2.719,2.724-4.073,6.989-4.073,12.812v39.891H381.714z"/>
	<path fill="#006838" d="M478.396,174.536c-4.07,2.151-8.396,3.45-12.952,3.938c-4.558,0.485-8.586,0.731-12.083,0.731
		c-6.985,0-13.096-1.902-18.34-5.687c-5.244-3.781-7.857-10.043-7.857-18.781c0-8.144,2.367-13.963,7.126-17.458
		s10.819-5.819,18.201-6.99c0.971,0,2.131-0.141,3.493-0.444c1.359-0.289,2.912-0.528,4.658-0.729
		c8.54-1.153,12.81-3.674,12.81-7.565c0-2.905-1.503-4.802-4.513-5.669c-3.011-0.882-5.776-1.307-8.297-1.307
		c-2.724,0-5.146,0.385-7.281,1.153c-2.134,0.776-3.684,2.236-4.653,4.377h-19.506c0.769-6.013,3.497-10.968,8.15-14.86
		c5.236-4.45,12.709-6.686,22.418-6.686c10.872,0,19.016,1.841,24.455,5.532c5.624,3.875,8.443,9.315,8.443,16.307v26.485
		c0,7.767-1.407,13.827-4.225,18.206C485.631,169.446,482.278,172.597,478.396,174.536z M473.741,138.736
		c-2.714,1.357-6.506,2.613-11.353,3.784l-6.693,1.46c-3.495,0.957-6.018,2.219-7.573,3.784c-1.352,2.128-2.038,4.273-2.038,6.397
		c0,2.919,0.872,5.241,2.624,6.992c1.746,1.551,4.266,2.321,7.565,2.321c5.43,0,9.701-1.55,12.812-4.647
		c3.105-3.116,4.656-7.385,4.656-12.81V138.736z"/>
	<g>
		<path fill="#80C242" d="M14.219,204.269h3.108c1.545,0,2.807,0.385,3.779,1.153c0.973,0.769,1.458,1.756,1.458,2.955
			c0,0.962-0.314,1.812-0.942,2.545c-0.63,0.736-1.61,1.254-2.945,1.556l4.168,6.141h-2.246l-3.982-5.902h-0.438v5.902h-1.96
			V204.269z M16.179,206.002v5c2.89,0.061,4.334-0.776,4.334-2.51c0-0.608-0.168-1.105-0.505-1.492
			c-0.339-0.388-0.789-0.651-1.352-0.789C18.094,206.072,17.267,206.002,16.179,206.002z"/>
		<path fill="#80C242" d="M30.365,204.269h7.952v1.96h-6.015v3.58h6.015v1.938h-6.015v4.935h6.015v1.938h-7.952V204.269z"/>
		<path fill="#80C242" d="M57.303,204.764v2.219c-1.547-0.759-2.97-1.139-4.269-1.139c-1.668,0-3.073,0.54-4.214,1.616
			c-1.141,1.075-1.711,2.399-1.711,3.967c0,1.596,0.583,2.93,1.751,4c1.166,1.068,2.628,1.604,4.387,1.604
			c1.276,0,2.628-0.402,4.055-1.206v2.241c-1.301,0.69-2.708,1.038-4.224,1.038c-2.224,0-4.123-0.754-5.701-2.26
			c-1.575-1.502-2.364-3.316-2.364-5.439c0-2.088,0.774-3.872,2.327-5.359c1.55-1.485,3.417-2.229,5.603-2.229
			C54.348,203.816,55.801,204.133,57.303,204.764z"/>
		<path fill="#80C242" d="M64.675,204.269h1.938v14.35h-1.938V204.269z"/>
		<path fill="#80C242" d="M86.442,204.764v2.219c-1.548-0.759-2.97-1.139-4.269-1.139c-1.668,0-3.07,0.54-4.213,1.616
			c-1.141,1.075-1.711,2.399-1.711,3.967c0,1.596,0.583,2.93,1.751,4c1.168,1.068,2.631,1.604,4.387,1.604
			c1.277,0,2.628-0.402,4.056-1.206v2.241c-1.299,0.69-2.708,1.038-4.224,1.038c-2.224,0-4.124-0.754-5.701-2.26
			c-1.576-1.502-2.364-3.316-2.364-5.439c0-2.088,0.776-3.872,2.327-5.359c1.55-1.485,3.417-2.229,5.603-2.229
			C83.487,203.816,84.94,204.133,86.442,204.764z"/>
		<path fill="#80C242" d="M94.131,204.269h1.938v12.412h4.673v1.938h-6.611V204.269z"/>
		<path fill="#80C242" d="M113.154,203.716l6.774,14.902h-2.053l-1.666-3.674h-6.088l-1.646,3.674h-2.041L113.154,203.716z
			 M113.149,208.193l-2.296,5.118h4.618L113.149,208.193z"/>
		<path fill="#80C242" d="M139.984,206.565l-1.452,1.432c-1.465-1.435-3.159-2.153-5.081-2.153c-1.681,0-3.081,0.54-4.201,1.621
			c-1.118,1.08-1.679,2.432-1.679,4.05c0,1.42,0.543,2.696,1.628,3.832c1.085,1.139,2.581,1.706,4.487,1.706
			c2.862,0,4.661-1.244,5.397-3.729h-3.875v-1.96h6.116c0,0.982-0.065,1.767-0.199,2.35c-0.13,0.585-0.402,1.23-0.816,1.935
			c-0.412,0.706-0.962,1.337-1.648,1.896c-0.688,0.558-1.424,0.958-2.208,1.196c-0.784,0.241-1.721,0.362-2.809,0.362
			c-2.48,0-4.455-0.779-5.932-2.337c-1.475-1.559-2.211-3.337-2.211-5.34c0-2.11,0.754-3.904,2.264-5.387
			c1.507-1.482,3.336-2.224,5.485-2.224c1.276,0,2.442,0.193,3.498,0.58C137.8,204.783,138.881,205.507,139.984,206.565z"/>
		<path fill="#80C242" d="M148.821,204.269h7.953v1.96h-6.016v3.58h6.016v1.938h-6.016v4.935h6.016v1.938h-7.953V204.269z"/>
		<path fill="#80C242" d="M176,203.671l3.925,14.947h-1.92l-2.377-9.134l-4.088,9.684l-4.101-9.764l-2.41,9.214h-1.91l3.925-14.947
			l4.493,10.693L176,203.671z"/>
		<path fill="#80C242" d="M198.477,204.269h3.48c2.756,0,4.807,0.729,6.151,2.184c1.344,1.457,2.015,3.12,2.015,4.99
			c0,1.884-0.694,3.553-2.083,5.002c-1.39,1.447-3.41,2.174-6.061,2.174h-3.503V204.269z M200.437,206.184v10.497h0.113
			c1.457,0,2.553-0.065,3.289-0.198c0.736-0.131,1.435-0.417,2.095-0.862c0.661-0.441,1.186-1.029,1.576-1.761
			c0.392-0.734,0.585-1.538,0.585-2.417c0-1.104-0.312-2.101-0.935-2.995c-0.624-0.895-1.367-1.495-2.236-1.802
			c-0.867-0.31-2.033-0.462-3.495-0.462H200.437z"/>
		<path fill="#80C242" d="M217.304,204.269h7.953v1.96h-6.015v3.58h6.015v1.938h-6.015v4.935h6.015v1.938h-7.953V204.269z"/>
		<path fill="#80C242" d="M244.361,204.269h1.937v12.412h4.674v1.938h-6.611V204.269z"/>
		<path fill="#80C242" d="M257.997,204.269h1.937v14.35h-1.937V204.269z"/>
		<path fill="#80C242" d="M267.61,204.269h2.158l3.208,5.231l3.168-5.231h2.186l-4.264,7.038l4.39,7.312h-2.171l-3.307-5.513
			l-3.342,5.513h-2.186l4.435-7.319L267.61,204.269z"/>
		<path fill="#80C242" d="M284.68,211.359c0-2.073,0.782-3.847,2.342-5.324c1.563-1.478,3.44-2.219,5.633-2.219
			c2.139,0,3.983,0.746,5.531,2.236c1.545,1.487,2.319,3.256,2.319,5.307c0,2.168-0.764,4-2.292,5.497
			c-1.528,1.498-3.405,2.247-5.626,2.247c-2.193,0-4.06-0.757-5.598-2.265C285.449,215.332,284.68,213.505,284.68,211.359z
			 M298.422,211.449c0-1.583-0.57-2.917-1.713-4c-1.141-1.085-2.545-1.628-4.211-1.628c-1.585,0-2.942,0.553-4.073,1.656
			c-1.131,1.103-1.693,2.427-1.693,3.972c0,1.568,0.578,2.893,1.738,3.978c1.161,1.083,2.581,1.626,4.264,1.626
			c1.545,0,2.882-0.553,4.002-1.661C297.859,214.286,298.422,212.973,298.422,211.449z"/>
		<path fill="#80C242" d="M319.418,204.269h7.953v1.96h-6.016v3.58h6.016v1.938h-6.016v4.935h6.016v1.938h-7.953V204.269z"/>
		<path fill="#80C242" d="M335.033,204.269h1.938v12.412h4.676v1.938h-6.613V204.269z"/>
		<path fill="#80C242" d="M348.547,204.269h7.952v1.96h-6.015v3.58h6.015v1.938h-6.015v4.935h6.015v1.938h-7.952V204.269z"/>
		<path fill="#80C242" d="M363.004,204.269h8.774v1.96h-3.424v12.39h-1.938v-12.39h-3.412V204.269z"/>
		<path fill="#80C242" d="M379.364,204.269h3.108c1.548,0,2.807,0.385,3.778,1.153c0.973,0.769,1.46,1.756,1.46,2.955
			c0,0.962-0.316,1.812-0.944,2.545c-0.628,0.736-1.61,1.254-2.942,1.556l4.168,6.141h-2.248l-3.98-5.902h-0.439v5.902h-1.96
			V204.269z M381.324,206.002v5c2.89,0.061,4.337-0.776,4.337-2.51c0-0.608-0.169-1.105-0.508-1.492
			c-0.337-0.388-0.789-0.651-1.352-0.789C383.238,206.072,382.412,206.002,381.324,206.002z"/>
		<path fill="#80C242" d="M395.07,211.359c0-2.073,0.781-3.847,2.345-5.324c1.561-1.478,3.438-2.219,5.631-2.219
			c2.141,0,3.982,0.746,5.53,2.236c1.548,1.487,2.321,3.256,2.321,5.307c0,2.168-0.767,4-2.294,5.497
			c-1.527,1.498-3.402,2.247-5.626,2.247c-2.19,0-4.058-0.757-5.598-2.265C395.842,215.332,395.07,213.505,395.07,211.359z
			 M408.812,211.449c0-1.583-0.57-2.917-1.712-4c-1.141-1.085-2.545-1.628-4.213-1.628c-1.583,0-2.94,0.553-4.071,1.656
			c-1.13,1.103-1.695,2.427-1.695,3.972c0,1.568,0.58,2.893,1.741,3.978c1.161,1.083,2.58,1.626,4.264,1.626
			c1.545,0,2.88-0.553,4.003-1.661C408.252,214.286,408.812,212.973,408.812,211.449z M403.095,200.922l-1.299,1.914h-2.31
			l2.455-3.131h2.151l2.545,3.131h-2.309L403.095,200.922z"/>
		<path fill="#80C242" d="M418.415,203.693l10.611,10.907v-10.332h1.96v15.013l-10.611-10.856v10.193h-1.96V203.693z"/>
		<path fill="#80C242" d="M438.956,204.269h1.938v14.35h-1.938V204.269z"/>
		<path fill="#80C242" d="M460.722,204.764v2.219c-1.548-0.759-2.97-1.139-4.269-1.139c-1.669,0-3.073,0.54-4.214,1.616
			c-1.141,1.075-1.711,2.399-1.711,3.967c0,1.596,0.583,2.93,1.751,4c1.169,1.068,2.631,1.604,4.388,1.604
			c1.276,0,2.628-0.402,4.055-1.206v2.241c-1.299,0.69-2.708,1.038-4.224,1.038c-2.224,0-4.123-0.754-5.701-2.26
			c-1.575-1.502-2.364-3.316-2.364-5.439c0-2.088,0.776-3.872,2.327-5.359c1.55-1.485,3.417-2.229,5.603-2.229
			C457.768,203.816,459.22,204.133,460.722,204.764z"/>
		<path fill="#80C242" d="M467.532,211.359c0-2.073,0.781-3.847,2.342-5.324c1.563-1.478,3.439-2.219,5.633-2.219
			c2.139,0,3.983,0.746,5.53,2.236c1.546,1.487,2.319,3.256,2.319,5.307c0,2.168-0.764,4-2.291,5.497
			c-1.528,1.498-3.405,2.247-5.626,2.247c-2.193,0-4.061-0.757-5.599-2.265C468.301,215.332,467.532,213.505,467.532,211.359z
			 M481.273,211.449c0-1.583-0.57-2.917-1.713-4c-1.142-1.085-2.546-1.628-4.212-1.628c-1.585,0-2.942,0.553-4.072,1.656
			c-1.129,1.103-1.694,2.427-1.694,3.972c0,1.568,0.581,2.893,1.739,3.978c1.161,1.083,2.583,1.626,4.264,1.626
			c1.548,0,2.882-0.553,4.005-1.661C480.711,214.286,481.273,212.973,481.273,211.449z"/>
	</g>
	<path fill="#007C41" d="M609.611,132.076v-15.154V69.895h-13.634c-80.954,0-78.251,71.207-78.251,71.207V217.5
		c0,0,4.478-0.045,73.522-0.045c81.545,0,81.356-75.276,81.356-75.276v-10.103h-47.836H609.611z"/>
	<rect x="682.171" y="33.169" fill="#006838" width="26.353" height="26.336"/>
	<path fill="#006838" d="M609.611,132.076L517.726,217.5c0,0,4.478-0.045,73.522-0.045c81.545,0,81.356-75.276,81.356-75.276
		v-10.103H609.611z"/>
	<polygon fill="#F69137" points="673.507,68.184 673.507,59.505 673.507,43.276 624.769,43.276 624.769,116.922 700.947,116.922 
		700.947,68.184 682.171,68.184 	"/>
	<g>
		<path fill="#8BC53F" d="M682.195,48.887l10.616,10.615h0.968L682.195,47.92V48.887z M700.158,47.45
			c-0.439,0.014-1.208-0.304-1.513-0.625l-3.384-3.387c-0.322-0.301-0.641-1.071-0.629-1.51v-8.762h-0.683v8.762
			c0.013,0.688,0.347,1.5,0.826,1.996l3.385,3.388c0.497,0.478,1.307,0.812,1.997,0.824h8.39V47.45H700.158z M682.195,52.06
			l7.445,7.442h0.968l-8.413-8.414V52.06z M682.195,55.486l4.016,4.016h0.97l-4.985-4.985V55.486z M685.508,46.706V33.166h-0.682
			v13.541c0.011,0.691,0.345,1.501,0.824,1.997l10.8,10.799h0.97l-11.284-11.285C685.819,47.916,685.497,47.146,685.508,46.706z
			 M687.696,45.421V33.166h-0.687v12.255c0.01,0.691,0.35,1.501,0.827,1.998l12.083,12.083h0.97l-12.568-12.568
			C688,46.631,687.683,45.861,687.696,45.421z M698.005,49.679l-5.06-5.058c-0.319-0.304-0.639-1.075-0.621-1.513v-9.942h-0.688
			v9.942c0.01,0.688,0.35,1.5,0.827,1.998l5.058,5.056c0.495,0.48,1.307,0.816,1.997,0.829l9.03,0.064V50.37l-9.03-0.064
			C699.075,50.314,698.306,49.995,698.005,49.679z M703.404,58.587l-12.771-12.768c-0.316-0.304-0.636-1.07-0.623-1.513V33.166
			h-0.688v11.141c0.013,0.693,0.35,1.502,0.829,1.998l12.767,12.769c0.171,0.166,0.388,0.305,0.616,0.429h5.015v-0.288h-3.63
			C704.475,59.227,703.706,58.91,703.404,58.587z"/>
	</g>
	<g>
		<path fill="#006838" d="M691.051,87.509v5.539c0,0.572,0.467,1.038,1.04,1.038h2.304v4.646c-1.108,0.167-1.96,1.122-1.96,2.28
			c0,1.271,1.03,2.304,2.307,2.304c1.274,0,2.31-1.033,2.31-2.304c0-1.156-0.853-2.113-1.96-2.28v-4.646h2.537
			c0.571,0,1.038-0.466,1.038-1.038v-5.539c0-0.573-0.467-1.039-1.038-1.039h-5.537C691.517,86.47,691.051,86.936,691.051,87.509z"
			/>
		<path fill="#006838" d="M696.01,100.664c0,0.764-0.617,1.383-1.384,1.383c-0.764,0-1.382-0.62-1.382-1.383
			c0-0.768,0.618-1.384,1.382-1.384C695.392,99.279,696.01,99.896,696.01,100.664z"/>
	</g>
	<path fill="#006838" d="M672.931,59.465c-0.008-0.399,0.254-1.063,0.545-1.41v-1.01l-0.401,0.402
		c-0.485,0.501-0.822,1.322-0.832,2.018v18.351h0.457h0.231V59.465z"/>
	<g>
		<path fill="#006838" d="M689.203,74.583c1.271,0,2.307-1.033,2.307-2.307c0-1.275-1.035-2.308-2.307-2.308
			c-0.724,0-1.366,0.332-1.791,0.854v-2.638h-0.693v4.092h0.178C686.896,73.55,687.929,74.583,689.203,74.583z"/>
		<circle fill="#006838" cx="689.088" cy="71.931" r="1.385"/>
	</g>
	<path fill="#006838" d="M668.457,60.44c-0.016-0.442,0.307-1.219,0.631-1.528l4.389-4.39v-0.982l-4.882,4.882
		c-0.484,0.503-0.824,1.322-0.834,2.018v12.181h0.208h0.488V60.44z"/>
	<g>
		<path fill="#006838" d="M676.5,77.452c0.321,0.31,0.643,1.083,0.631,1.531v1.601c0.012,0.698,0.349,1.519,0.834,2.018l1.949,1.949
			c-0.329,0.398-0.52,0.904-0.52,1.457c0,1.275,1.032,2.311,2.307,2.311c1.276,0,2.307-1.035,2.307-2.311
			c0-1.274-1.03-2.307-2.307-2.307c-0.471,0-0.91,0.14-1.274,0.386l-1.973-1.971c-0.321-0.308-0.643-1.084-0.63-1.531v-1.601
			c-0.013-0.7-0.354-1.518-0.837-2.018l-0.824-0.826c-0.324-0.306-0.646-1.083-0.636-1.526v-6.43h-0.691v6.43
			c0.013,0.696,0.353,1.513,0.835,2.015L676.5,77.452z"/>
		<circle fill="#006838" cx="681.588" cy="85.661" r="1.384"/>
	</g>
	<g>
		<path fill="#006838" d="M679.741,74.699c1.273,0,2.307-1.035,2.307-2.307c0-1.277-1.033-2.31-2.307-2.31
			c-1.276,0-2.31,1.033-2.31,2.31C677.431,73.664,678.465,74.699,679.741,74.699z"/>
		<path fill="#006838" d="M679.623,70.659c0.766,0,1.387,0.621,1.387,1.388c0,0.76-0.621,1.38-1.387,1.38
			c-0.764,0-1.385-0.621-1.385-1.38C678.238,71.28,678.859,70.659,679.623,70.659z"/>
	</g>
	<g>
		<path fill="#006838" d="M630.004,88.548c1.276,0,2.309-1.034,2.309-2.308s-1.03-2.304-2.302-2.31h0.57V43.276h-0.69V83.93h0.107
			c-1.271,0.006-2.301,1.036-2.301,2.31S628.729,88.548,630.004,88.548z"/>
		<path fill="#006838" d="M629.89,84.506c0.764,0,1.382,0.618,1.382,1.389c0,0.762-0.618,1.38-1.382,1.38
			c-0.767,0-1.385-0.618-1.385-1.38C628.506,85.124,629.124,84.506,629.89,84.506z"/>
	</g>
	<g>
		<path fill="#006838" d="M665.663,74.929c0,1.278,1.032,2.307,2.306,2.307c1.274,0,2.307-1.029,2.307-2.307
			c0-1.274-1.032-2.308-2.307-2.308C666.695,72.622,665.663,73.655,665.663,74.929z"/>
		<path fill="#006838" d="M667.856,73.199c0.761,0,1.382,0.618,1.382,1.383c0,0.768-0.621,1.386-1.382,1.386
			c-0.767,0-1.388-0.618-1.388-1.386C666.469,73.817,667.09,73.199,667.856,73.199z"/>
	</g>
	<g>
		<path fill="#006838" d="M634.187,103.949c0.484-0.5,0.824-1.319,0.836-2.014V91.143c-0.012-0.446,0.312-1.22,0.631-1.53
			l1.016-1.011c0.487-0.5,0.824-1.319,0.836-2.014v-0.926c-0.012-0.699-0.349-1.518-0.836-2.017l-3.03-3.034
			c-0.324-0.304-0.648-1.083-0.634-1.529V43.276h-0.693v35.806c0.013,0.702,0.352,1.519,0.834,2.019l3.033,3.03
			c0.324,0.309,0.648,1.083,0.633,1.53v0.926c0.016,0.443-0.309,1.22-0.633,1.522l-1.01,1.017c-0.488,0.498-0.827,1.319-0.837,2.016
			v10.792c0.01,0.443-0.31,1.22-0.634,1.526l-2.107,2.109c-0.412-0.394-0.973-0.64-1.588-0.64c-1.274,0-2.307,1.035-2.307,2.309
			s1.032,2.309,2.307,2.309c1.276,0,2.309-1.035,2.309-2.309c0-0.525-0.178-1.007-0.475-1.397l0.23,0.23L634.187,103.949z"/>
		<circle fill="#006838" cx="629.89" cy="106.892" r="1.385"/>
	</g>
	<g>
		<path fill="#006838" d="M678.238,95.123c1.276,0,2.312-1.033,2.312-2.305c0-1.276-1.035-2.309-2.312-2.309
			c-0.731,0-1.382,0.342-1.804,0.875h-5.214c-0.334,0-0.553-0.011-0.693-0.021c-0.035-0.553-0.061-1.3-0.061-1.778v-0.301
			c-0.013-0.699-0.352-1.515-0.837-2.02l-7.575-7.573c-0.324-0.307-0.644-1.085-0.633-1.53V60.59
			c-0.011-0.444,0.309-1.22,0.633-1.526l11.422-11.421v-0.979l-11.912,11.912c-0.482,0.5-0.824,1.318-0.837,2.014v17.569
			c0.013,0.7,0.354,1.518,0.837,2.019l7.576,7.577c0.323,0.305,0.646,1.083,0.633,1.528v0.301c0,0.585,0.037,1.519,0.08,2.101
			c0.043,0.244,0.193,0.285,0.239,0.308c0.168,0.055,0.347,0.077,1.128,0.079h4.837c-0.081,0.236-0.126,0.485-0.126,0.746
			C675.931,94.09,676.967,95.123,678.238,95.123z"/>
		<path fill="#006838" d="M678.125,91.088c0.764,0,1.385,0.62,1.385,1.381c0,0.764-0.621,1.387-1.385,1.387
			c-0.766,0-1.384-0.623-1.384-1.387C676.741,91.708,677.359,91.088,678.125,91.088z"/>
	</g>
	<g>
		<path fill="#006838" d="M644.082,93.278c0-1.271-1.03-2.308-2.31-2.308c-1.271,0-2.304,1.037-2.304,2.308
			c0,1.276,1.032,2.307,2.304,2.307C643.052,95.584,644.082,94.554,644.082,93.278z"/>
		<circle fill="#006838" cx="641.658" cy="92.931" r="1.386"/>
	</g>
	<g>
		<path fill="#006838" d="M643.101,76.313c-0.324-0.308-0.646-1.084-0.636-1.529V43.276h-0.693v31.508
			c0.018,0.701,0.354,1.518,0.839,2.02l5.194,5.191c0.324,0.308,0.646,1.085,0.633,1.533v20.249
			c0.013,0.445-0.309,1.224-0.633,1.528l-2.241,2.243c-0.402-0.335-0.917-0.538-1.482-0.538c-1.274,0-2.31,1.032-2.31,2.308
			c0,1.274,1.035,2.309,2.31,2.309c1.273,0,2.309-1.035,2.309-2.309c0-0.46-0.138-0.887-0.369-1.249l2.273-2.274
			c0.485-0.499,0.824-1.319,0.837-2.018V83.529c-0.013-0.701-0.352-1.52-0.837-2.018L643.101,76.313z"/>
		<circle fill="#006838" cx="643.969" cy="108.974" r="1.385"/>
	</g>
	<path fill="#8BC53F" d="M610.217,177.235l7.649-7.644c0.452-0.478,1.595-0.95,2.247-0.935h47.34l0.364-1.021h-47.704
		c-1.028,0.025-2.23,0.521-2.971,1.234l-7.64,7.643c-0.453,0.478-1.601,0.953-2.258,0.933h-29.801
		c-0.655,0.021-1.802-0.455-2.25-0.933l-3.299-3.296c0.492-0.594,0.791-1.353,0.791-2.184c0-1.875-1.519-3.397-3.398-3.397
		c-1.874,0-3.396,1.522-3.396,3.397c0,1.874,1.522,3.399,3.396,3.399c0.68,0,1.307-0.203,1.839-0.545l3.347,3.347
		c0.735,0.714,1.94,1.214,2.971,1.231h29.801C608.278,178.449,609.482,177.949,610.217,177.235z"/>
	<g>
		<path fill="#006838" d="M635.946,79.804c-0.324-0.308-0.644-1.083-0.634-1.526V43.276h-0.69v35.001
			c0.01,0.696,0.352,1.514,0.834,2.016l2.57,2.572c0.324,0.304,0.646,1.083,0.631,1.526v3.58c0.015,0.444-0.307,1.221-0.631,1.527
			l-0.45,0.447c-0.484,0.502-0.821,1.322-0.834,2.019v15.169c-1.188,0.095-2.12,1.086-2.12,2.297c0,1.277,1.032,2.309,2.307,2.309
			c1.276,0,2.306-1.032,2.306-2.309c0-1.098-0.771-2.019-1.799-2.249V91.965c-0.015-0.447,0.31-1.222,0.631-1.529l0.45-0.447
			c0.484-0.504,0.824-1.322,0.834-2.018v-3.58c-0.01-0.694-0.35-1.516-0.834-2.016L635.946,79.804z"/>
		<path fill="#006838" d="M638.197,109.088c0,0.764-0.621,1.383-1.385,1.383s-1.385-0.62-1.385-1.383
			c0-0.768,0.621-1.386,1.385-1.386S638.197,108.321,638.197,109.088z"/>
	</g>
	<g>
		<path fill="#006838" d="M643.85,104.818c1.276,0,2.312-1.034,2.312-2.308c0-0.499-0.161-0.956-0.43-1.333
			c0.093-0.093,0.209-0.206,0.334-0.335c0.397-0.423,0.629-1.154,0.641-1.823V84.65c-0.01-0.694-0.349-1.516-0.836-2.014
			l-5.194-5.199c-0.321-0.307-0.646-1.083-0.633-1.526V43.276h-0.693v32.635c0.015,0.697,0.352,1.514,0.837,2.017l5.195,5.196
			c0.322,0.307,0.646,1.083,0.634,1.526v14.369c0.013,0.472-0.246,1.165-0.438,1.337c-0.126,0.117-0.238,0.233-0.326,0.321
			c-0.39-0.294-0.875-0.477-1.402-0.477c-1.274,0-2.307,1.035-2.307,2.31C641.544,103.784,642.576,104.818,643.85,104.818z"/>
		<circle fill="#006838" cx="643.737" cy="102.164" r="1.385"/>
	</g>
	<path fill="#006838" d="M642.119,83.874c-0.01-0.698-0.352-1.519-0.834-2.019l-2.944-2.945c-0.322-0.307-0.644-1.083-0.634-1.525
		V43.276h-0.69v34.109c0.01,0.696,0.349,1.514,0.831,2.013l2.947,2.946c0.324,0.307,0.646,1.084,0.634,1.53v7.096h0.344h0.347
		V83.874z"/>
	<g>
		<path fill="#006838" d="M676.864,107.24c-0.294-0.938-1.171-1.618-2.201-1.618c-1.271,0-2.31,1.037-2.31,2.311
			c0,1.275,1.038,2.311,2.31,2.311c1.276,0,2.309-1.036,2.309-2.311h23.945v-0.692H676.864z"/>
		<path fill="#006838" d="M675.931,107.589c0,0.763-0.62,1.382-1.385,1.382c-0.764,0-1.384-0.62-1.384-1.387
			c0-0.763,0.62-1.383,1.384-1.383c0.765,0,1.385,0.621,1.385,1.381V107.589z"/>
	</g>
	<g>
		<path fill="#006838" d="M680.55,110.243c-1.276,0-2.309,1.034-2.309,2.306c0,1.277,1.032,2.305,2.309,2.305
			c1.271,0,2.307-1.028,2.307-2.305C682.856,111.277,681.821,110.243,680.55,110.243z"/>
		<circle fill="#006838" cx="680.431" cy="112.203" r="1.385"/>
	</g>
	<polygon fill="#006838" points="682.856,112.549 682.856,112.896 700.917,112.896 700.917,112.203 682.856,112.203 	"/>
	<g>
		<path fill="#8BC53F" d="M605.782,206.861c-1.662,0-3.008,1.35-3.008,3.005c0,1.664,1.346,3.006,3.008,3.006
			c1.655,0,3.005-1.342,3.005-3.006C608.787,208.211,607.437,206.861,605.782,206.861z"/>
		<polygon fill="#8BC53F" points="608.787,209.414 608.787,209.866 608.787,210.319 629.474,210.319 631.475,209.414 		"/>
	</g>
	<g>
		<path fill="#8BC53F" d="M623.138,173.896c-1.662,0-3.007,1.35-3.007,3.006c0,1.663,1.345,3.005,3.007,3.005
			c1.656,0,3.006-1.342,3.006-3.005C626.144,175.245,624.795,173.896,623.138,173.896z"/>
		<polygon fill="#8BC53F" points="626.144,176.448 626.144,176.901 626.144,177.354 663.778,177.354 664.209,176.448 		"/>
	</g>
	<g>
		<path fill="#8BC53F" d="M583.817,200.603c-1.662,0-3.007,1.347-3.007,3.005c0,1.661,1.345,3.003,3.007,3.003
			c1.656,0,3.005-1.342,3.005-3.003C586.822,201.949,585.473,200.603,583.817,200.603z"/>
		<polygon fill="#8BC53F" points="586.822,203.155 586.822,203.607 586.822,204.058 640.885,204.058 642.18,203.155 		"/>
	</g>
	<g>
		<circle fill="#006838" cx="672.7" cy="80.122" r="2.307"/>
		<circle fill="#006838" cx="672.586" cy="79.776" r="1.386"/>
	</g>
	<g>
		<path fill="#006838" d="M664.228,86.609c0.334,0.314,0.646,1.038,0.633,1.384v0.425c-0.939,0.292-1.623,1.168-1.623,2.204
			c0,1.279,1.035,2.309,2.309,2.309c1.274,0,2.305-1.03,2.305-2.309c0-1.271-1.025-2.302-2.297-2.304v-0.324
			c-0.013-0.636-0.364-1.384-0.837-1.875l-5.131-5.131c-0.324-0.307-0.646-1.083-0.63-1.529V59.597
			c-0.016-0.446,0.306-1.222,0.63-1.529l13.89-13.89v-0.902h-0.077l-14.302,14.302c-0.485,0.505-0.822,1.322-0.835,2.019v19.861
			c0.013,0.699,0.35,1.517,0.835,2.019L664.228,86.609z"/>
		<circle fill="#006838" cx="665.431" cy="90.278" r="1.385"/>
	</g>
	<g>
		<path fill="#006838" d="M670.16,94.085c-1.273,0-2.304,1.033-2.304,2.308c0,0.808,0.414,1.516,1.042,1.931h-0.022v10.211
			c-0.361-0.235-0.791-0.371-1.253-0.371c-1.274,0-2.307,1.03-2.307,2.307s1.032,2.308,2.307,2.308c1.275,0,2.309-1.031,2.309-2.308
			c0-0.456-0.136-0.882-0.364-1.239V98.622c0.19,0.053,0.39,0.081,0.593,0.081c1.279,0,2.312-1.036,2.312-2.309
			C672.471,95.118,671.439,94.085,670.16,94.085z"/>
		<path fill="#006838" d="M667.507,111.511c-0.764,0-1.382-0.62-1.382-1.386c0-0.763,0.618-1.383,1.382-1.383
			c0.709,0,1.289,0.534,1.369,1.222v0.161h0.016C668.891,110.891,668.27,111.511,667.507,111.511z"/>
		<path fill="#006838" d="M670.047,97.431c-0.764,0-1.384-0.621-1.384-1.382c0-0.767,0.62-1.385,1.384-1.385
			c0.767,0,1.385,0.618,1.385,1.385C671.431,96.811,670.813,97.431,670.047,97.431z"/>
	</g>
	<g>
		<path fill="#006838" d="M679.741,78.736c0,1.278,1.032,2.311,2.307,2.311c1.155,0,2.11-0.85,2.278-1.959h0.033l0.075-10.903
			h-0.691l-0.065,8.922c-0.417-0.418-0.994-0.676-1.63-0.676C680.773,76.431,679.741,77.463,679.741,78.736z"/>
		<path fill="#006838" d="M683.316,78.393c0,0.762-0.618,1.383-1.382,1.383c-0.769,0-1.385-0.621-1.385-1.383
			c0-0.767,0.616-1.387,1.385-1.387C682.698,77.006,683.316,77.626,683.316,78.393z"/>
	</g>
	<g>
		<path fill="#006838" d="M673.476,49.866l-9.618,9.617c-0.484,0.5-0.824,1.32-0.834,2.018v15.536
			c0.01,0.696,0.35,1.516,0.834,2.018l9.674,9.676l0.01-0.015c0.399,0.327,0.91,0.522,1.465,0.522c1.276,0,2.312-1.031,2.312-2.309
			c0-1.271-1.035-2.307-2.312-2.307c-1.269,0-2.296,1.025-2.307,2.297l-8.349-8.354c-0.327-0.308-0.648-1.081-0.636-1.528V61.5
			c-0.013-0.442,0.309-1.222,0.636-1.525l9.125-9.128V49.866z"/>
		<path fill="#006838" d="M674.894,85.197c0.766,0,1.384,0.623,1.384,1.384c0,0.769-0.618,1.39-1.384,1.39
			c-0.765,0-1.385-0.621-1.385-1.39C673.51,85.82,674.13,85.197,674.894,85.197z"/>
	</g>
	<g>
		<path fill="#006838" d="M651.7,85.196l0.909,0.916c0.322,0.303,0.644,1.083,0.634,1.527v4.392
			c-1.131,0.146-2.006,1.113-2.006,2.284c0,1.276,1.033,2.309,2.31,2.309c1.273,0,2.307-1.033,2.307-2.309
			c0-1.143-0.829-2.089-1.92-2.271v-4.405c-0.01-0.701-0.35-1.52-0.837-2.019l-0.909-0.911c-0.324-0.306-0.644-1.082-0.633-1.529
			v-0.692c-0.011-0.697-0.353-1.515-0.835-2.021l-5.284-5.28c-0.321-0.304-0.643-1.083-0.633-1.525V61.802
			c-0.01-0.445,0.312-1.221,0.633-1.528l6.84-6.837c0.485-0.502,0.824-1.324,0.839-2.02v-8.141h-0.695v8.141
			c0.013,0.445-0.307,1.222-0.634,1.529l-6.837,6.839c-0.484,0.502-0.823,1.32-0.836,2.017v11.859
			c0.013,0.697,0.352,1.515,0.836,2.017l5.282,5.283c0.321,0.307,0.643,1.083,0.633,1.527v0.692
			C650.873,83.879,651.215,84.697,651.7,85.196z"/>
		<path fill="#006838" d="M654.815,93.971c0,0.763-0.623,1.384-1.384,1.384c-0.767,0-1.388-0.622-1.388-1.384
			c0-0.767,0.621-1.382,1.388-1.382C654.192,92.589,654.815,93.205,654.815,93.971z"/>
	</g>
	<g>
		<circle fill="#006838" cx="649.045" cy="72.16" r="2.308"/>
		<path fill="#006838" d="M650.315,71.815c0,0.764-0.62,1.384-1.387,1.384c-0.762,0-1.385-0.621-1.385-1.384
			c0-0.767,0.623-1.386,1.385-1.386C649.695,70.429,650.315,71.048,650.315,71.815z"/>
	</g>
	<g>
		<path fill="#006838" d="M654.956,83.409c-0.321-0.303-0.643-1.084-0.63-1.524V56.003c-0.013-0.462,0.266-1.178,0.502-1.397
			c0.428-0.447,0.693-1.211,0.709-1.89v-9.44h-0.693v9.44c0.012,0.462-0.267,1.181-0.503,1.398c-0.43,0.451-0.696,1.211-0.709,1.888
			v25.882c0.013,0.696,0.353,1.514,0.837,2.013l2.684,2.69c0.321,0.305,0.646,1.083,0.633,1.529v9.691
			c0.013,0.444-0.312,1.221-0.633,1.527l-2.377,2.379c-0.356-0.226-0.779-0.36-1.229-0.36c-1.276,0-2.31,1.034-2.31,2.311
			c0,1.271,1.033,2.307,2.31,2.307c1.273,0,2.307-1.036,2.307-2.307c0-0.57-0.209-1.096-0.556-1.495l2.345-2.344
			c0.484-0.502,0.824-1.319,0.837-2.018v-9.691c-0.013-0.701-0.353-1.519-0.837-2.021L654.956,83.409z"/>
		<path fill="#006838" d="M653.431,104.7c-0.767,0-1.388-0.618-1.388-1.385c0-0.765,0.621-1.386,1.388-1.386
			c0.761,0,1.384,0.621,1.384,1.386C654.815,104.082,654.192,104.7,653.431,104.7z"/>
	</g>
	<g>
		<path fill="#006838" d="M661.738,99.856c-0.222,0-0.438,0.031-0.641,0.093V86.88c-0.013-0.701-0.353-1.516-0.837-2.018
			l-3.011-3.011c-0.324-0.307-0.646-1.082-0.63-1.526V57c-0.016-0.465,0.256-1.173,0.479-1.379c0.42-0.44,0.674-1.191,0.688-1.87
			V43.276h-0.693v10.475c0.01,0.47-0.259,1.177-0.485,1.382c-0.417,0.438-0.671,1.191-0.684,1.867v23.325
			c0.013,0.698,0.353,1.516,0.837,2.015l3.008,3.014c0.321,0.305,0.646,1.082,0.636,1.526v13.402
			c-0.588,0.418-0.978,1.103-0.978,1.882c0,1.272,1.038,2.305,2.31,2.305c1.273,0,2.309-1.033,2.309-2.305
			C664.047,100.889,663.011,99.856,661.738,99.856z"/>
		<path fill="#006838" d="M661.622,103.203c-0.764,0-1.384-0.621-1.384-1.385c0-0.769,0.62-1.387,1.384-1.387
			c0.767,0,1.385,0.618,1.385,1.387C663.007,102.582,662.388,103.203,661.622,103.203z"/>
	</g>
	<rect x="719.357" y="34.972" fill="#8BC53F" width="16.254" height="16.229"/>
	<path fill="#006838" d="M720.601,34.972h-0.594l-0.65,0.651v0.427l0.869-0.871C720.307,35.097,720.453,35.025,720.601,34.972z"/>
	<path fill="#006838" d="M729.51,36.698h-7.671c-0.307,0.005-0.663,0.153-0.882,0.364l-1.601,1.604v0.427l1.812-1.814
		c0.136-0.143,0.475-0.281,0.671-0.278h7.671c0.196-0.003,0.535,0.135,0.666,0.278l5.435,5.432v-0.428l-5.219-5.22
		C730.174,36.852,729.817,36.704,729.51,36.698z"/>
	<path fill="#006838" d="M729.945,35.623h-8.671c-0.307,0.004-0.666,0.151-0.884,0.362l-1.033,1.033v0.43l1.249-1.247
		c0.131-0.143,0.47-0.282,0.668-0.276h8.671c0.193-0.006,0.533,0.133,0.669,0.276l4.997,4.999v-0.428l-4.786-4.787
		C730.606,35.774,730.25,35.627,729.945,35.623z"/>
	<g>
		<path fill="#006838" d="M732.883,47.156c-0.216-0.212-0.572-0.362-0.874-0.364l-9.709-0.07c0.181-0.184,0.294-0.436,0.294-0.713
			c0-0.556-0.449-1.006-1.008-1.006c-0.555,0-1.005,0.451-1.005,1.006c0,0.506,0.367,0.922,0.852,0.995v0.014l10.571,0.074
			c0.198-0.003,0.535,0.138,0.668,0.277l2.233,2.23c0.141,0.136,0.279,0.475,0.274,0.668v0.935h0.304v-0.935
			c-0.008-0.304-0.155-0.664-0.366-0.882L732.883,47.156z"/>
		<path fill="#006838" d="M721.739,46.563c-0.334,0-0.608-0.271-0.608-0.605c0-0.334,0.274-0.603,0.608-0.603
			c0.332,0,0.604,0.269,0.604,0.603C722.343,46.292,722.071,46.563,721.739,46.563z"/>
	</g>
	<path fill="#006838" d="M729.114,37.701h-6.782c-0.307,0.005-0.663,0.153-0.882,0.365l-2.093,2.094v0.425l2.305-2.304
		c0.135-0.142,0.475-0.284,0.67-0.279h6.782c0.193-0.005,0.532,0.137,0.666,0.279l5.831,5.83v-0.426l-5.618-5.618
		C729.774,37.854,729.418,37.706,729.114,37.701z"/>
	<g>
		<path fill="#006838" d="M723.25,38.854c-0.559,0-1.006,0.45-1.006,1.005c0,0.558,0.447,1.007,1.006,1.007
			c0.558,0,1.007-0.45,1.007-1.007C724.257,39.304,723.807,38.854,723.25,38.854z"/>
		<path fill="#006838" d="M723.402,40.415c-0.336,0-0.607-0.27-0.607-0.603c0-0.337,0.271-0.605,0.607-0.605
			c0.332,0,0.604,0.269,0.604,0.605C724.006,40.145,723.734,40.415,723.402,40.415z"/>
	</g>
	<path fill="#006838" d="M730.004,41.726h-8.014v0.2v0.102h8.014c0.19-0.005,0.535,0.136,0.665,0.276l4.942,4.941v-0.426
		l-4.726-4.729C730.667,41.879,730.304,41.731,730.004,41.726z"/>
	<path fill="#006838" d="M729.579,39.77h-5.322v0.089v0.213h5.322c0.193-0.005,0.53,0.133,0.663,0.276l5.369,5.367v-0.43
		l-5.153-5.153C730.239,39.922,729.881,39.774,729.579,39.77z"/>
	<path fill="#006838" d="M732.603,48.412c-0.223-0.211-0.575-0.359-0.881-0.364h-7.314c0,0,0.866,0.489,0.638,0.303h6.677
		c0.195-0.006,0.535,0.136,0.665,0.275l1.495,1.495c0.141,0.135,0.279,0.473,0.276,0.666v0.415h0.302v-0.415
		c-0.003-0.304-0.153-0.661-0.364-0.879L732.603,48.412z"/>
	<path fill="#006838" d="M732.498,35.113c-0.155,0.002-0.341-0.066-0.475-0.141h-0.598c0.113,0.042,0.211,0.093,0.256,0.142
		c0.191,0.183,0.521,0.295,0.816,0.3h3.113v-0.302H732.498z"/>
	<path fill="#006838" d="M729.627,42.859h-6.239c-0.304,0.005-0.661,0.153-0.88,0.364l-0.356,0.362
		c-0.138,0.141-0.475,0.281-0.673,0.276h-0.696c-0.304,0.005-0.666,0.152-0.88,0.363l-0.545,0.544v0.427l0.756-0.756
		c0.137-0.142,0.471-0.282,0.669-0.275h0.696c0.309-0.006,0.666-0.154,0.884-0.366l0.359-0.36c0.134-0.142,0.473-0.283,0.666-0.278
		h6.239c0.19-0.005,0.529,0.136,0.666,0.278l5.318,5.32v-0.424l-5.105-5.111C730.287,43.013,729.927,42.864,729.627,42.859z"/>
	<g>
		<circle fill="#006838" cx="720.983" cy="41.927" r="1.008"/>
		<path fill="#006838" d="M721.131,42.482c-0.331,0-0.603-0.272-0.603-0.607c0-0.333,0.271-0.604,0.603-0.604
			c0.337,0,0.608,0.271,0.608,0.604C721.739,42.21,721.468,42.482,721.131,42.482z"/>
	</g>
	<g>
		<path fill="#006838" d="M726.212,48.294c0-0.558-0.45-1.009-1.008-1.009c-0.555,0-1.007,0.451-1.007,1.009
			c0,0.554,0.452,1.006,1.007,1.006C725.761,49.3,726.212,48.848,726.212,48.294z"/>
		<path fill="#006838" d="M724.75,48.241c0-0.332,0.271-0.604,0.603-0.604c0.337,0,0.608,0.272,0.608,0.604
			c0,0.334-0.271,0.607-0.608,0.607C725.021,48.848,724.75,48.576,724.75,48.241z"/>
	</g>
	<rect x="702.749" y="8.246" fill="#8BC53F" width="18.782" height="19.854"/>
	<path fill="#006838" d="M713.362,15.59c0.706,0,1.284-0.577,1.284-1.284c0-0.706-0.578-1.28-1.284-1.28
		c-0.711,0-1.281,0.574-1.281,1.28C712.081,15.013,712.651,15.59,713.362,15.59z M712.081,14.306v-0.192h-4.814l-4.518,4.514v0.271
		l4.596-4.593H712.081z M709.809,17.854c0.193,0.455,0.646,0.773,1.176,0.773c0.709,0,1.279-0.577,1.279-1.285
		c0-0.71-0.57-1.282-1.279-1.282c-0.708,0-1.286,0.572-1.286,1.282c0,0.113,0.018,0.217,0.045,0.319h-3.433l-3.563,3.565v0.267
		l3.639-3.639H709.809z M711.437,21.149c0-0.708-0.575-1.28-1.284-1.28c-0.419,0-0.794,0.201-1.022,0.513v-0.015h-3.176
		l-3.206,3.206v0.276l3.289-3.289h2.978c-0.096,0.176-0.146,0.378-0.146,0.589c0,0.708,0.575,1.285,1.283,1.285
		C710.862,22.434,711.437,21.857,711.437,21.149z M719.458,19.095c-0.706,0-1.281,0.574-1.281,1.284
		c0,0.708,0.575,1.279,1.281,1.279h0.013v1.591l-4.85,4.852h0.276l4.769-4.769V21.64c0.611-0.098,1.078-0.623,1.078-1.261
		C720.744,19.669,720.169,19.095,719.458,19.095z M717.051,18.509l1.357-1.352c0.229,0.216,0.54,0.351,0.879,0.351
		c0.711,0,1.284-0.574,1.284-1.285c0-0.706-0.573-1.279-1.284-1.279c-0.709,0-1.281,0.573-1.281,1.279
		c0,0.307,0.105,0.588,0.284,0.807l-0.011-0.015l-1.419,1.416v4.914l-4.757,4.756h0.271l4.676-4.678V18.509z M714.47,20.635
		c0.603-0.103,1.061-0.628,1.061-1.261c0-0.709-0.576-1.282-1.282-1.282c-0.708,0-1.284,0.573-1.284,1.282
		c0,0.709,0.576,1.284,1.284,1.284c0.011,0,0.022-0.002,0.022-0.002l0.008,2.528l-4.914,4.917h0.271l4.835-4.837V20.635z
		 M712.797,10.793c0.227,0.203,0.522,0.324,0.852,0.324c0.709,0,1.279-0.571,1.279-1.279c0-0.708-0.57-1.281-1.279-1.281
		c-0.708,0-1.286,0.573-1.286,1.281c0,0.312,0.11,0.601,0.299,0.82l-1.555,1.552h-8.357v0.191h8.438L712.797,10.793z
		 M707.234,25.365h-3.144c-0.319,0-0.58,0.257-0.58,0.577V28.1h4.299v-2.158C707.809,25.623,707.551,25.365,707.234,25.365z"/>
	<path fill="#006838" d="M368.072,83.705c0.561,0,1.015-0.456,1.015-1.015c0-0.56-0.455-1.014-1.015-1.014
		c-0.563,0-1.015,0.454-1.015,1.014C367.057,83.249,367.51,83.705,368.072,83.705z M367.057,82.689v-0.153h-3.809l-8.01,6.659v0.216
		l8.073-6.721H367.057z M365.26,85.496c0.156,0.359,0.51,0.61,0.932,0.61c0.561,0,1.01-0.456,1.01-1.016
		c0-0.562-0.45-1.014-1.01-1.014c-0.563,0-1.02,0.452-1.02,1.014c0,0.09,0.015,0.172,0.038,0.252h-2.716l-7.256,5.998v0.21
		l7.317-6.054H365.26z M366.55,88.104c0-0.562-0.455-1.014-1.018-1.014c-0.332,0-0.628,0.16-0.809,0.406v-0.013h-2.513l-6.973,6.01
		v0.219l7.041-6.076h2.354c-0.076,0.138-0.116,0.299-0.116,0.467c0,0.561,0.455,1.018,1.015,1.018
		C366.094,89.122,366.55,88.665,366.55,88.104z M372.896,86.479c-0.561,0-1.013,0.455-1.013,1.015c0,0.56,0.452,1.013,1.013,1.013
		h0.01v1.259l-3.839,3.839h0.219l3.773-3.774v-1.339c0.485-0.076,0.854-0.493,0.854-0.998
		C373.914,86.933,373.459,86.479,372.896,86.479z M370.992,86.015l1.073-1.069c0.181,0.171,0.427,0.276,0.695,0.276
		c0.563,0,1.016-0.454,1.016-1.018c0-0.558-0.452-1.01-1.016-1.01c-0.561,0-1.013,0.453-1.013,1.01c0,0.244,0.083,0.466,0.224,0.641
		l-0.007-0.013l-1.124,1.12v3.888l-3.764,3.764h0.213l3.701-3.704V86.015z M368.949,87.697c0.478-0.082,0.839-0.498,0.839-0.998
		c0-0.561-0.455-1.015-1.013-1.015c-0.563,0-1.018,0.455-1.018,1.015c0,0.56,0.455,1.015,1.018,1.015
		c0.008,0,0.015-0.002,0.022-0.002v2.001l-3.889,3.891h0.216l3.824-3.828V87.697z M367.625,79.909
		c0.179,0.161,0.415,0.258,0.673,0.258c0.561,0,1.013-0.455,1.013-1.013c0-0.562-0.452-1.015-1.013-1.015
		c-0.56,0-1.018,0.454-1.018,1.015c0,0.245,0.088,0.474,0.236,0.648l-1.229,1.229h-11.051v0.151h11.113L367.625,79.909z
		 M363.223,91.441h-2.488c-0.251,0-0.459,0.204-0.459,0.455v1.709h3.402v-1.709C363.677,91.645,363.474,91.441,363.223,91.441z"/>
	<g>
		<path fill="#8BC53F" d="M517.707,187.705l29.673,29.672h2.777l-32.45-32.445V187.705z M569.261,183.582
			c-1.262,0.04-3.469-0.872-4.342-1.797l-9.714-9.724c-0.923-0.864-1.839-3.073-1.803-4.332V79.069l-1.961,1.055v87.605
			c0.036,1.978,0.995,4.307,2.373,5.731l9.714,9.722c1.428,1.374,3.749,2.334,5.732,2.367h89.488l1.488-1.968H569.261z
			 M517.707,196.811l20.572,20.566h2.776l-23.349-23.353V196.811z M517.707,206.648l10.728,10.729h2.784l-13.512-13.513V206.648z
			 M527.212,181.449V104.47l-1.955,3.462v73.517c0.029,1.982,0.989,4.307,2.366,5.729l30.199,30.199h2.784l-31.592-31.592
			C528.105,184.919,527.181,182.71,527.212,181.449z M533.494,177.758V95.123l-1.971,2.308v80.327
			c0.03,1.982,1.003,4.312,2.373,5.733l33.886,33.886h2.782L535.287,182.1C534.364,181.228,533.457,179.021,533.494,177.758z
			 M563.082,189.979l-14.525-14.521c-0.916-0.869-1.83-3.083-1.78-4.342V82.431l-1.976,1.846v86.841
			c0.028,1.979,1.002,4.309,2.373,5.736l14.517,14.51c1.419,1.375,3.75,2.342,5.733,2.38l84.949,0.39l1.827-2.171l-86.776-0.184
			C566.152,191.804,563.946,190.887,563.082,189.979z M577.785,214.751l-35.861-35.85c-0.91-0.87-1.826-3.073-1.789-4.342V87.971
			l-1.977,2.308v84.281c0.036,1.989,1.004,4.313,2.381,5.736l35.847,35.853c0.489,0.472,1.11,0.874,1.766,1.229h18.608l8.853-0.827
			h-23.487C580.856,216.585,578.65,215.679,577.785,214.751z"/>
	</g>
</g>
</svg>
